<?xml version="1.0" encoding="iso-8859-1"?>
<!-- Generator: Adobe Illustrator 19.0.0, SVG Export Plug-In . SVG Version: 6.00 Build 0)  -->
<svg version="1.1" id="Layer_1" xmlns="http://www.w3.org/2000/svg" xmlns:xlink="http://www.w3.org/1999/xlink" x="0px" y="0px"
	 viewBox="0 0 512 512" style="enable-background:new 0 0 512 512;" xml:space="preserve">
<g>
	<g>
		<path d="M450.805,0H61.195C27.452,0,0,27.452,0,61.195v389.61C0,484.548,27.452,512,61.195,512h389.61
			C484.548,512,512,484.548,512,450.805V61.195C512,27.452,484.548,0,450.805,0z M491.602,450.805
			c0,22.495-18.301,40.797-40.797,40.797H61.195c-22.495,0-40.797-18.301-40.797-40.797V61.195
			c0-22.495,18.301-40.797,40.797-40.797h389.61c22.495,0,40.797,18.301,40.797,40.797V450.805z"/>
	</g>
</g>
<g>
	<g>
		<path d="M167.777,52.016c-31.493,0-57.116,25.622-57.116,57.116s25.622,57.116,57.116,57.116s57.116-25.622,57.116-57.116
			S199.27,52.016,167.777,52.016z M167.777,145.849c-20.246,0-36.717-16.471-36.717-36.717c0-20.246,16.471-36.717,36.717-36.717
			c20.246,0,36.717,16.471,36.717,36.717C204.494,129.378,188.023,145.849,167.777,145.849z"/>
	</g>
</g>
<g>
	<g>
		<path d="M167.777,198.884c-31.493,0-57.116,25.622-57.116,57.116s25.622,57.116,57.116,57.116s57.116-25.622,57.116-57.116
			S199.27,198.884,167.777,198.884z M167.777,292.717c-20.246,0-36.717-16.471-36.717-36.717c0-20.246,16.471-36.717,36.717-36.717
			c20.246,0,36.717,16.471,36.717,36.717S188.023,292.717,167.777,292.717z"/>
	</g>
</g>
<g>
	<g>
		<path d="M167.777,345.753c-31.493,0-57.116,25.622-57.116,57.116s25.622,57.116,57.116,57.116s57.116-25.622,57.116-57.116
			S199.27,345.753,167.777,345.753z M167.777,439.586c-20.246,0-36.717-16.471-36.717-36.717s16.471-36.717,36.717-36.717
			c20.246,0,36.717,16.471,36.717,36.717S188.023,439.586,167.777,439.586z"/>
	</g>
</g>
<g>
	<g>
		<path d="M344.223,52.016c-31.493,0-57.116,25.622-57.116,57.116s25.622,57.116,57.116,57.116
			c31.493,0,57.116-25.622,57.116-57.116S375.716,52.016,344.223,52.016z M344.223,145.849c-20.246,0-36.717-16.471-36.717-36.717
			c0-20.246,16.471-36.717,36.717-36.717c20.246,0,36.717,16.471,36.717,36.717C380.94,129.378,364.47,145.849,344.223,145.849z"/>
	</g>
</g>
<g>
	<g>
		<path d="M344.223,198.884c-31.493,0-57.116,25.622-57.116,57.116s25.622,57.116,57.116,57.116
			c31.493,0,57.116-25.622,57.116-57.116S375.716,198.884,344.223,198.884z M344.223,292.717c-20.246,0-36.717-16.471-36.717-36.717
			c0-20.246,16.471-36.717,36.717-36.717c20.246,0,36.717,16.471,36.717,36.717S364.47,292.717,344.223,292.717z"/>
	</g>
</g>
<g>
	<g>
		<path d="M344.223,345.753c-31.493,0-57.116,25.622-57.116,57.116s25.622,57.116,57.116,57.116
			c31.493,0,57.116-25.622,57.116-57.116S375.716,345.753,344.223,345.753z M344.223,439.586c-20.246,0-36.717-16.471-36.717-36.717
			s16.471-36.717,36.717-36.717c20.246,0,36.717,16.471,36.717,36.717S364.47,439.586,344.223,439.586z"/>
	</g>
</g>
<g>
	<g>
		<path d="M47.936,103.012c-5.633,0-10.199,4.566-10.199,10.199v188.685c0,5.633,4.566,10.199,10.199,10.199
			c5.633,0,10.199-4.566,10.199-10.199V113.211C58.135,107.578,53.569,103.012,47.936,103.012z"/>
	</g>
</g>
<g>
	<g>
		<path d="M47.936,44.876c-5.633,0-10.199,4.566-10.199,10.199v18.359c0,5.633,4.566,10.199,10.199,10.199
			c5.633,0,10.199-4.566,10.199-10.199V55.076C58.135,49.443,53.569,44.876,47.936,44.876z"/>
	</g>
</g>
<g>
</g>
<g>
</g>
<g>
</g>
<g>
</g>
<g>
</g>
<g>
</g>
<g>
</g>
<g>
</g>
<g>
</g>
<g>
</g>
<g>
</g>
<g>
</g>
<g>
</g>
<g>
</g>
<g>
</g>
</svg>
